<svg id="Capa_1" data-name="Capa 1" xmlns="http://www.w3.org/2000/svg" viewBox="0 0 100 74"><defs><style>.cls-1{fill:#f24b88;}.cls-2{fill:#fff;}</style></defs><title>Mesa de trabajo 1</title><path class="cls-1" d="M.43,11.66H28.58v1a16.36,16.36,0,0,0-5.37.58,4.42,4.42,0,0,0-2,1.75,5,5,0,0,0-.76,2.73,14.35,14.35,0,0,0,1.43,5.19l1.17,2.77L37,59.73l9.72-29.32A29.81,29.81,0,0,0,48.58,22a11.29,11.29,0,0,0-.73-4,8.63,8.63,0,0,0-2-3.15,6.67,6.67,0,0,0-2.66-1.66,12.47,12.47,0,0,0-3.83-.49v-1H68.19v1a28.61,28.61,0,0,0-3.83.18,6.31,6.31,0,0,0-2.21.76A6,6,0,0,0,60,15.93a6.52,6.52,0,0,0-.83,3.25,22.41,22.41,0,0,0,1.25,5.59l11,35.49L83.72,30.05q2.86-6.93,2.86-10.74,0-4-2.64-5.64a9.61,9.61,0,0,0-4.88-1v-1H99.78v1a12.83,12.83,0,0,0-4.54,1.14,9.33,9.33,0,0,0-3.06,3Q89.93,20,86.58,28.17L68.19,72.75H66.35L50.42,25.09,34.26,72.75h-2l-20-48.16L10.9,21.33a33.14,33.14,0,0,0-2.33-4.79,7.26,7.26,0,0,0-2.28-2.33,7.32,7.32,0,0,0-2.32-1,22.93,22.93,0,0,0-3.54-.49Z"/><path class="cls-2" d="M.65,62.31a22.77,22.77,0,0,0,3.53-.49,7.38,7.38,0,0,0,2.33-1,7.47,7.47,0,0,0,2.28-2.33,34.24,34.24,0,0,0,2.33-4.79l1.34-3.26,20-48.16h2L50.63,49.91,66.57,2.25H68.4L86.8,46.83Q90.15,55,92.39,58.15a9.44,9.44,0,0,0,3.07,3A12.77,12.77,0,0,0,100,62.31v1H79.28v-1a9.64,9.64,0,0,0,4.88-1q2.64-1.66,2.64-5.64,0-3.81-2.87-10.74L71.63,14.74l-11,35.49a22.1,22.1,0,0,0-1.26,5.59,6.63,6.63,0,0,0,.83,3.25,6,6,0,0,0,2.17,2.3,6.43,6.43,0,0,0,2.22.76,28.43,28.43,0,0,0,3.82.18v1H39.63v-1a12.4,12.4,0,0,0,3.82-.49,6.7,6.7,0,0,0,2.67-1.66A8.75,8.75,0,0,0,48.06,57a11.3,11.3,0,0,0,.74-4,29.91,29.91,0,0,0-1.88-8.41L37.21,15.27l-13.92,34-1.16,2.77a14.21,14.21,0,0,0-1.44,5.19A5,5,0,0,0,21.46,60a4.4,4.4,0,0,0,2,1.75,16.44,16.44,0,0,0,5.37.58v1H.65Z"/></svg>