<svg id="Capa_1" data-name="Capa 1" xmlns="http://www.w3.org/2000/svg" viewBox="0 0 80 59.2"><defs><style>.cls-1{fill:#f24b88;}.cls-2{fill:#fff;}</style></defs><title>Mesa de trabajo 1</title><path class="cls-1" d="M.43,9.45h22.5v.82a13.18,13.18,0,0,0-4.3.47,3.55,3.55,0,0,0-1.57,1.39,4,4,0,0,0-.61,2.18,11.22,11.22,0,0,0,1.15,4.15l.93,2.22L29.65,47.86l7.76-23.42a23.91,23.91,0,0,0,1.5-6.73,8.81,8.81,0,0,0-.59-3.2A7,7,0,0,0,36.77,12a5.3,5.3,0,0,0-2.13-1.32,9.74,9.74,0,0,0-3.06-.4V9.45h23v.82a21.87,21.87,0,0,0-3.06.15,5,5,0,0,0-1.77.6A4.76,4.76,0,0,0,48,12.87a5.16,5.16,0,0,0-.67,2.59,18.07,18.07,0,0,0,1,4.47l8.8,28.36L67,24.15c1.52-3.7,2.29-6.56,2.29-8.58s-.71-3.63-2.11-4.51a7.58,7.58,0,0,0-3.9-.79V9.45H79.83v.82a10.23,10.23,0,0,0-3.63.91,7.62,7.62,0,0,0-2.45,2.42,48.41,48.41,0,0,0-4.47,9L54.58,58.27H53.11L40.38,20.18,27.47,58.27H25.86l-16-38.48L8.8,17.18a27.08,27.08,0,0,0-1.86-3.83,5.81,5.81,0,0,0-1.83-1.86,5.79,5.79,0,0,0-1.85-.82,18.28,18.28,0,0,0-2.83-.4Z"/><path class="cls-2" d="M.6,49.93a18.28,18.28,0,0,0,2.83-.4,5.94,5.94,0,0,0,1.86-.82,5.89,5.89,0,0,0,1.82-1.86A27.08,27.08,0,0,0,9,43L10,40.41,26,1.93h1.61L40.55,40,53.28,1.93h1.47l14.7,35.62a49.71,49.71,0,0,0,4.47,9.05A7.62,7.62,0,0,0,76.37,49a10.23,10.23,0,0,0,3.63.91v.82H63.44v-.82a7.58,7.58,0,0,0,3.9-.79q2.11-1.32,2.11-4.51,0-3-2.29-8.58L57.32,11.91,48.53,40.27a17.76,17.76,0,0,0-1,4.47,5.16,5.16,0,0,0,.67,2.59,4.83,4.83,0,0,0,1.73,1.85,5,5,0,0,0,1.77.6,21.87,21.87,0,0,0,3.06.15v.82h-23v-.82a9.74,9.74,0,0,0,3.06-.4,5.3,5.3,0,0,0,2.13-1.32,7,7,0,0,0,1.55-2.52,8.81,8.81,0,0,0,.59-3.2,23.91,23.91,0,0,0-1.5-6.73L29.82,12.34,18.7,39.52l-.93,2.22a11.42,11.42,0,0,0-1.15,4.15,4.07,4.07,0,0,0,.61,2.18,3.52,3.52,0,0,0,1.58,1.39,13.07,13.07,0,0,0,4.29.47v.82H.6Z"/></svg>